<svg xmlns="http://www.w3.org/2000/svg" width="197.222" height="197.222" viewBox="0 0 197.222 197.222">
  <path id="Icon_material-brightness-7" data-name="Icon material-brightness-7" d="M169.4,70.786V29.895H128.506L99.646,1.035l-28.86,28.86H29.895V70.786L1.035,99.646l28.86,28.86V169.4H70.786l28.86,28.86,28.86-28.86H169.4V128.506l28.86-28.86ZM99.646,151.959a52.313,52.313,0,1,1,52.313-52.313A52.355,52.355,0,0,1,99.646,151.959Zm0-87.189a34.876,34.876,0,1,0,34.876,34.876A34.866,34.866,0,0,0,99.646,64.77Z" transform="translate(-1.035 -1.035)" fill="#fff"/>
</svg>
