{
  "accessors": [
    {
      "bufferView": 2,
      "componentType": 5126,
      "count": 439,
      "max": [
        1,
        1,
        1.0000001192092896
      ],
      "min": [
        -1.0000002384185791,
        -1,
        -1.0000004768371582
      ],
      "type": "VEC3"
    },
    {
      "bufferView": 2,
      "byteOffset": 5268,
      "componentType": 5126,
      "count": 439,
      "max": [
        1,
        1,
        1
      ],
      "min": [
        -1,
        -1,
        -1
      ],
      "type": "VEC3"
    },
    {
      "bufferView": 1,
      "componentType": 5126,
      "count": 439,
      "max": [
        1.7154111862182617,
        0.64763307571411133
      ],
      "min": [
        1.4225649833679199,
        0.35478746891021729
      ],
      "type": "VEC2"
    },
    {
      "bufferView": 0,
      "componentType": 5125,
      "count": 2280,
      "max": [
        438
      ],
      "min": [
        0
      ],
      "type": "SCALAR"
    },
    {
      "bufferView": 2,
      "byteOffset": 10536,
      "componentType": 5126,
      "count": 13501,
      "max": [
        15.010027885437012,
        20.325347900390625,
        13.130549430847168
      ],
      "min": [
        -13.167943954467773,
        -1.5538324117660522,
        -10.913051605224609
      ],
      "type": "VEC3"
    },
    {
      "bufferView": 2,
      "byteOffset": 172548,
      "componentType": 5126,
      "count": 13501,
      "max": [
        1,
        1,
        1
      ],
      "min": [
        -1,
        -1,
        -1
      ],
      "type": "VEC3"
    },
    {
      "bufferView": 1,
      "byteOffset": 3512,
      "componentType": 5126,
      "count": 13501,
      "max": [
        0.98515522480010986,
        0.99447256326675415
      ],
      "min": [
        0.0051302360370755196,
        0.0068271467462182045
      ],
      "type": "VEC2"
    },
    {
      "bufferView": 0,
      "byteOffset": 9120,
      "componentType": 5125,
      "count": 57717,
      "max": [
        13500
      ],
      "min": [
        0
      ],
      "type": "SCALAR"
    },
    {
      "bufferView": 2,
      "byteOffset": 334560,
      "componentType": 5126,
      "count": 6986,
      "max": [
        2.8090031147003174,
        25.687023162841797,
        4.4019274711608887
      ],
      "min": [
        -2.9571747779846191,
        1.159355640411377,
        -2.9475400447845459
      ],
      "type": "VEC3"
    },
    {
      "bufferView": 2,
      "byteOffset": 418392,
      "componentType": 5126,
      "count": 6986,
      "max": [
        0.99984782934188843,
        0.99954056739807129,
        0.99999970197677612
      ],
      "min": [
        -0.99888062477111816,
        -0.9997820258140564,
        -0.99987149238586426
      ],
      "type": "VEC3"
    },
    {
      "bufferView": 1,
      "byteOffset": 111520,
      "componentType": 5126,
      "count": 6986,
      "max": [
        0.98572558164596558,
        1.9924436807632446
      ],
      "min": [
        0.0058592855930328369,
        1.0069546699523926
      ],
      "type": "VEC2"
    },
    {
      "bufferView": 0,
      "byteOffset": 239988,
      "componentType": 5125,
      "count": 34548,
      "max": [
        6985
      ],
      "min": [
        0
      ],
      "type": "SCALAR"
    },
    {
      "bufferView": 2,
      "byteOffset": 502224,
      "componentType": 5126,
      "count": 551,
      "max": [
        13.742549896240234,
        12.405025482177734,
        10.258256912231445
      ],
      "min": [
        -13.042284965515137,
        6.8407421112060547,
        -0.4337921142578125
      ],
      "type": "VEC3"
    },
    {
      "bufferView": 2,
      "byteOffset": 508836,
      "componentType": 5126,
      "count": 551,
      "max": [
        0.99537485837936401,
        0.99577468633651733,
        0.99887150526046753
      ],
      "min": [
        -0.98666197061538696,
        -0.96696990728378296,
        -0.99012130498886108
      ],
      "type": "VEC3"
    },
    {
      "bufferView": 1,
      "byteOffset": 167408,
      "componentType": 5126,
      "count": 551,
      "max": [
        0.98406535387039185,
        0.94333624839782715
      ],
      "min": [
        0.23505926132202148,
        0.0090695619583129883
      ],
      "type": "VEC2"
    },
    {
      "bufferView": 0,
      "byteOffset": 378180,
      "componentType": 5125,
      "count": 2388,
      "max": [
        550
      ],
      "min": [
        0
      ],
      "type": "SCALAR"
    },
    {
      "bufferView": 2,
      "byteOffset": 515448,
      "componentType": 5126,
      "count": 9198,
      "max": [
        10.487795829772949,
        17.699485778808594,
        13.670285224914551
      ],
      "min": [
        -10.078510284423828,
        3.4101333618164062,
        -9.2160654067993164
      ],
      "type": "VEC3"
    },
    {
      "bufferView": 2,
      "byteOffset": 625824,
      "componentType": 5126,
      "count": 9198,
      "max": [
        0.99997967481613159,
        0.99998950958251953,
        0.99999892711639404
      ],
      "min": [
        -0.99997967481613159,
        -1,
        -0.99998742341995239
      ],
      "type": "VEC3"
    },
    {
      "bufferView": 1,
      "byteOffset": 171816,
      "componentType": 5126,
      "count": 9198,
      "max": [
        1.9949133396148682,
        0.98949980735778809
      ],
      "min": [
        1.0090019702911377,
        0.012746976688504219
      ],
      "type": "VEC2"
    },
    {
      "bufferView": 0,
      "byteOffset": 387732,
      "componentType": 5125,
      "count": 42360,
      "max": [
        9197
      ],
      "min": [
        0
      ],
      "type": "SCALAR"
    },
    {
      "bufferView": 2,
      "byteOffset": 736200,
      "componentType": 5126,
      "count": 224,
      "max": [
        4.0948805809020996,
        14.789306640625,
        5.6179003715515137
      ],
      "min": [
        -4.1870574951171875,
        5.5652198791503906,
        -6.6966686248779297
      ],
      "type": "VEC3"
    },
    {
      "bufferView": 2,
      "byteOffset": 738888,
      "componentType": 5126,
      "count": 224,
      "max": [
        0.9987560510635376,
        0.86634838581085205,
        0.99990862607955933
      ],
      "min": [
        -0.99402368068695068,
        -0.037827573716640472,
        -0.98113530874252319
      ],
      "type": "VEC3"
    },
    {
      "bufferView": 1,
      "byteOffset": 245400,
      "componentType": 5126,
      "count": 224,
      "max": [
        0.30939853191375732,
        0.94336885213851929
      ],
      "min": [
        0.13096481561660767,
        0.7290492057800293
      ],
      "type": "VEC2"
    },
    {
      "bufferView": 0,
      "byteOffset": 557172,
      "componentType": 5125,
      "count": 1248,
      "max": [
        223
      ],
      "min": [
        0
      ],
      "type": "SCALAR"
    }
  ],
  "asset": {
    "extras": {
      "author": "Blueky (https://sketchfab.com/Blueky)",
      "license": "CC-BY-NC-4.0 (http://creativecommons.org/licenses/by-nc/4.0/)",
      "source": "https://sketchfab.com/3d-models/beth-harmon-709afc363286448990d695fcf50e3c9e",
      "title": "Beth Harmon"
    },
    "generator": "Sketchfab-9.70.0",
    "version": "2.0"
  },
  "bufferViews": [
    {
      "buffer": 0,
      "byteLength": 562164,
      "byteOffset": 0,
      "name": "floatBufferViews",
      "target": 34963
    },
    {
      "buffer": 0,
      "byteLength": 247192,
      "byteOffset": 562164,
      "byteStride": 8,
      "name": "floatBufferViews",
      "target": 34962
    },
    {
      "buffer": 0,
      "byteLength": 741576,
      "byteOffset": 809356,
      "byteStride": 12,
      "name": "floatBufferViews",
      "target": 34962
    }
  ],
  "buffers": [
    {
      "byteLength": 1550932,
      "uri": "scene.bin"
    }
  ],
  "extensionsUsed": [
    "KHR_materials_unlit"
  ],
  "images": [
    {
      "uri": "textures/aiStandardSurface3_baseColor.png"
    },
    {
      "uri": "textures/aiStandardSurface2_baseColor.png"
    },
    {
      "uri": "textures/aiStandardSurface4_baseColor.png"
    }
  ],
  "materials": [
    {
      "doubleSided": true,
      "emissiveFactor": [
        0,
        0,
        0
      ],
      "extensions": {
        "KHR_materials_unlit": {}
      },
      "name": "aiStandardSurface3",
      "pbrMetallicRoughness": {
        "baseColorFactor": [
          1,
          1,
          1,
          1
        ],
        "baseColorTexture": {
          "index": 0,
          "texCoord": 0
        },
        "metallicFactor": 0,
        "roughnessFactor": 1
      }
    },
    {
      "doubleSided": true,
      "emissiveFactor": [
        0,
        0,
        0
      ],
      "extensions": {
        "KHR_materials_unlit": {}
      },
      "name": "aiStandardSurface2",
      "pbrMetallicRoughness": {
        "baseColorFactor": [
          1,
          1,
          1,
          1
        ],
        "baseColorTexture": {
          "index": 1,
          "texCoord": 0
        },
        "metallicFactor": 0,
        "roughnessFactor": 1
      }
    },
    {
      "doubleSided": true,
      "extensions": {
        "KHR_materials_unlit": {}
      },
      "name": "aiStandardSurface4",
      "pbrMetallicRoughness": {
        "baseColorFactor": [
          1,
          1,
          1,
          1
        ],
        "baseColorTexture": {
          "index": 2,
          "texCoord": 0
        },
        "metallicFactor": 0,
        "roughnessFactor": 1
      }
    },
    {
      "alphaMode": "BLEND",
      "doubleSided": true,
      "extensions": {
        "KHR_materials_unlit": {}
      },
      "name": "aiStandardSurface6",
      "pbrMetallicRoughness": {
        "baseColorFactor": [
          1,
          1,
          1,
          0.53068511389999995
        ],
        "baseColorTexture": {
          "index": 1,
          "texCoord": 0
        },
        "metallicFactor": 0,
        "roughnessFactor": 1
      }
    },
    {
      "doubleSided": true,
      "extensions": {
        "KHR_materials_unlit": {}
      },
      "name": "aiStandardSurface5",
      "pbrMetallicRoughness": {
        "baseColorFactor": [
          1,
          1,
          1,
          1
        ],
        "baseColorTexture": {
          "index": 1,
          "texCoord": 0
        },
        "metallicFactor": 0,
        "roughnessFactor": 1
      }
    }
  ],
  "meshes": [
    {
      "name": "pSphere5_aiStandardSurface3_0",
      "primitives": [
        {
          "attributes": {
            "NORMAL": 1,
            "POSITION": 0,
            "TEXCOORD_0": 2
          },
          "indices": 3,
          "material": 0,
          "mode": 4
        }
      ]
    },
    {
      "name": "nurbsToPoly10_aiStandardSurface2_0",
      "primitives": [
        {
          "attributes": {
            "NORMAL": 5,
            "POSITION": 4,
            "TEXCOORD_0": 6
          },
          "indices": 7,
          "material": 1,
          "mode": 4
        }
      ]
    },
    {
      "name": "nurbsToPoly10_aiStandardSurface4_0",
      "primitives": [
        {
          "attributes": {
            "NORMAL": 9,
            "POSITION": 8,
            "TEXCOORD_0": 10
          },
          "indices": 11,
          "material": 2,
          "mode": 4
        }
      ]
    },
    {
      "name": "nurbsToPoly10_aiStandardSurface6_0",
      "primitives": [
        {
          "attributes": {
            "NORMAL": 13,
            "POSITION": 12,
            "TEXCOORD_0": 14
          },
          "indices": 15,
          "material": 3,
          "mode": 4
        }
      ]
    },
    {
      "name": "nurbsToPoly10_aiStandardSurface3_0",
      "primitives": [
        {
          "attributes": {
            "NORMAL": 17,
            "POSITION": 16,
            "TEXCOORD_0": 18
          },
          "indices": 19,
          "material": 0,
          "mode": 4
        }
      ]
    },
    {
      "name": "nurbsToPoly10_aiStandardSurface5_0",
      "primitives": [
        {
          "attributes": {
            "NORMAL": 21,
            "POSITION": 20,
            "TEXCOORD_0": 22
          },
          "indices": 23,
          "material": 4,
          "mode": 4
        }
      ]
    }
  ],
  "nodes": [
    {
      "children": [
        1
      ],
      "name": "RootNode (gltf orientation matrix)",
      "rotation": [
        -0.70710678118654746,
        -0,
        -0,
        0.70710678118654757
      ]
    },
    {
      "children": [
        2
      ],
      "name": "RootNode (model correction matrix)"
    },
    {
      "children": [
        3
      ],
      "matrix": [
        1,
        0,
        0,
        0,
        0,
        0,
        1,
        0,
        0,
        -1,
        0,
        0,
        0,
        0,
        0,
        1
      ],
      "name": "be9b5fabbf6342868ecfeebc25914699.fbx"
    },
    {
      "children": [
        4,
        6
      ],
      "name": "RootNode"
    },
    {
      "children": [
        5
      ],
      "matrix": [
        77.766929626464844,
        0,
        0,
        0,
        0,
        77.766929626464844,
        0,
        0,
        0,
        0,
        77.766929626464844,
        0,
        0,
        11.805594444274902,
        0,
        1
      ],
      "name": "pSphere5"
    },
    {
      "mesh": 0,
      "name": "pSphere5_aiStandardSurface3_0"
    },
    {
      "children": [
        7,
        8,
        9,
        10,
        11
      ],
      "name": "nurbsToPoly10"
    },
    {
      "mesh": 1,
      "name": "nurbsToPoly10_aiStandardSurface2_0"
    },
    {
      "mesh": 2,
      "name": "nurbsToPoly10_aiStandardSurface4_0"
    },
    {
      "mesh": 3,
      "name": "nurbsToPoly10_aiStandardSurface6_0"
    },
    {
      "mesh": 4,
      "name": "nurbsToPoly10_aiStandardSurface3_0"
    },
    {
      "mesh": 5,
      "name": "nurbsToPoly10_aiStandardSurface5_0"
    }
  ],
  "samplers": [
    {
      "magFilter": 9729,
      "minFilter": 9729,
      "wrapS": 10497,
      "wrapT": 10497
    }
  ],
  "scene": 0,
  "scenes": [
    {
      "name": "OSG_Scene",
      "nodes": [
        0
      ]
    }
  ],
  "textures": [
    {
      "sampler": 0,
      "source": 0
    },
    {
      "sampler": 0,
      "source": 1
    },
    {
      "sampler": 0,
      "source": 2
    }
  ]
}

